<?xml version="1.0" standalone="yes"?>
<svg xmlns="http://www.w3.org/2000/svg" width="512" height="512">
<path style="fill:#ffffff; stroke:none;" d="M0 0L0 512L74 512L74 511C64.6449 504.247 67 493.328 67 483L67 411L67 111L67 31C67 20.2799 64.275 8.02014 74 1L51 0L0 0z"/>
<path style="fill:#010101; stroke:none;" d="M74.0039 0.742279C63.9506 4.63644 67 19.5127 67 28L67 112L67 421C67 447.002 62.566 477.457 67.2284 503C68.6586 510.835 77.0762 513.436 84 511.351C94.5084 508.186 105.059 497.968 114 491.72C133.251 478.268 152.749 465.171 172 451.72C235.035 407.674 298.236 363.651 362 320.67C383.136 306.423 403.864 291.577 425 277.33C432.637 272.182 444.969 266.508 444.969 256C444.969 246.553 435.792 242.227 429 237.424C411.499 225.048 393.649 213.14 376 200.975C303.329 150.882 230.971 100.312 158 50.6559C138.585 37.4439 119.416 23.8684 100 10.6559C92.6596 5.66083 83.7653 -3.03882 74.0039 0.742279z"/>
<path style="fill:#ffffff; stroke:none;" d="M84 0L84 1C94.6635 6.04453 104.296 14.2856 114 20.9745L172 60.9745C234.676 104.177 297.066 147.83 360 190.656C381.738 205.448 403.262 220.552 425 235.344C432 240.108 444.912 246.227 444.912 256C444.912 265.773 432 271.892 425 276.656C403.262 291.448 381.738 306.552 360 321.344C297.067 364.17 234.676 407.823 172 451.025L114 491.025C104.296 497.714 94.6635 505.955 84 511L84 512L512 512L512 0L84 0M92 37L92 475C118.42 462.501 142.923 440.622 167 424.025C222.322 385.892 277.45 347.457 333 309.656C352.083 296.67 370.859 283.232 390 270.33C393.691 267.842 407.793 260.865 407.793 256C407.793 251.135 393.691 244.158 390 241.67C370.859 228.768 352.083 215.33 333 202.344C277.45 164.543 222.322 126.108 167 87.9745C142.923 71.3779 118.42 49.4986 92 37z"/>
</svg>
