<?xml version="1.0" standalone="yes"?>
<svg xmlns="http://www.w3.org/2000/svg" width="512" height="512">
<path style="fill:#ffffff; stroke:none;" d="M0 0L0 512L488 512L488 511L430.91 452L342 360L341 360C316.291 381.382 284.919 395.713 253 402.199C144.049 424.337 32.3409 350.228 12.4244 240C-3.66581 150.949 42.1203 61.1929 123 20.7531C143.71 10.3981 168.536 1.19421 192 1L174 0L135 0L0 0z"/>
<path style="fill:#010101; stroke:none;" d="M341 360L342 360C352.062 374.284 366.786 386.494 378.985 399C405.304 425.98 432.787 452.738 457.715 481C466.062 490.465 475.734 502.979 486.17 510.106C489.977 512.707 496.221 512.773 499.721 509.566C504.07 505.583 503.233 499.424 500.196 495C493.032 484.563 481.845 475.082 472.985 466C450.304 442.749 427.229 419.767 405.09 396C390.142 379.953 374.958 359.65 357 347C384.06 316.026 405.148 282.109 412.576 241C417.436 214.098 417.471 185.723 411.349 159C405.37 132.905 394.681 107.941 379.279 86C303.121 -22.4923 141.795 -27.791 56.3002 72C-15.5491 155.864 -2.9378 289.64 82 359.536C137.48 405.192 212.292 417.591 280 395C300.156 388.275 327.297 376.834 341 360z"/>
<path style="fill:#ffffff; stroke:none;" d="M233 0L233 1C257.332 1.20139 282.569 11.0363 304 21.7531C389.448 64.4827 434.133 165.162 408.576 257C399.001 291.405 380.231 319.409 357 346L357 347C396.332 386.332 434.144 427.183 472.985 467C481.78 476.016 513.072 498.865 497 511L497 512L512 512L512 0L233 0M199 20.4244C160.309 25.5069 125.614 37.2609 95 62.4637C78.2262 76.2726 64.6236 93.3731 53.6034 112C44.3982 127.559 38.3795 144.501 34.1296 162C4.64965 283.385 112.128 400.002 235 384.714C262.135 381.338 287.767 371.733 311 357.388C328.646 346.493 344.929 331.558 357.373 315C420.133 231.492 401.585 115.174 318 53.3773C301.783 41.3876 282.331 32.5486 263 27C242.97 21.2505 219.831 17.6879 199 20.4244z"/>
</svg>
