<?xml version="1.0" standalone="yes"?>
<svg xmlns="http://www.w3.org/2000/svg" width="512" height="512">
<path style="fill:#ffffff; stroke:none;" d="M0 0L0 218L1 218C4.15666 207.349 13.8672 199.546 25 199.039C31.1362 198.76 43.3702 201.822 46.2863 194.941C50.7151 184.491 53.8547 173.474 58.4244 163C60.2343 158.851 64.65 153.504 64.983 149C65.33 144.307 58.9143 139.978 56.0147 137C50.6092 131.449 46.133 124.936 45.3395 117C43.2701 96.3037 74.0357 75.9643 87 63C92.1031 57.8969 97.2914 50.9799 104 47.9699C114.133 43.4233 125.885 46.0844 134 53.1852C137.789 56.5008 142.705 64.3172 148 64.9784C152.029 65.4815 157.441 60.9438 161 59.3087C172.166 54.1781 185.083 51.4628 195.852 45.8912C201.604 42.9151 198.791 30.4666 199.039 25C199.545 13.8672 207.349 4.15662 218 1L197 0L153 0L0 0z"/>
<path style="fill:#010101; stroke:none;" d="M218 0.529327C206.685 3.14407 199.294 13.787 199.015 25C198.862 31.1193 201.591 42.7089 194.941 45.8912C184.193 51.035 171.996 53.9597 161 58.8611C157.507 60.4181 151.931 64.9623 148 64.2731C142.712 63.3459 137.979 55.6087 134 52.3287C124.685 44.6501 109.006 42.6713 99 50.3943C85.1961 61.049 73.3299 75.6701 61 88C52.7704 96.2296 44.1335 104.273 45.1883 117C45.9275 125.919 50.9229 132.838 57.0039 139C60.1838 142.222 65.6209 145.891 63.8086 151C59.836 162.199 53.4989 172.714 49.4352 184C47.9723 188.063 47.4538 195.399 43.581 197.972C39.4726 200.702 30.753 198.947 26 199.004C14.6623 199.139 4.0697 205.635 0.789352 217C-1.24896 224.062 0 232.707 0 240C0 258.551 -6.83465 292.877 8.17361 306.532C15.1375 312.869 23.1253 313 32 313C37.7127 313 43.7516 311.751 46.2863 318.019C50.7042 328.944 54.0344 340.171 58.8611 351C60.4181 354.493 64.9624 360.069 64.2731 364C63.5243 368.27 57.8591 372.036 55.0401 375C49.2558 381.082 44.5303 389.287 45.1852 398C46.6593 417.612 70.0602 433.06 83 446C88.6107 451.611 94.1749 458.851 101 462.995C111.044 469.092 125.264 466.872 134 459.671C138.38 456.061 144.506 445.888 151 448.191C162.527 452.281 173.393 458.742 185 462.946C188.785 464.317 195.581 464.826 197.972 468.419C200.197 471.762 199 478.167 199 482C199.001 491.086 200.054 499.054 207.174 505.532C214.532 512.228 222.68 512 232 512C251.313 512 275.194 515.817 294 511.471C305.883 508.724 312.857 497.599 312.996 486C313.06 480.692 310.748 469.699 316.148 466.569C326.441 460.603 340.061 458.387 351 453.219C354.443 451.593 360.07 447.038 364 447.727C369.288 448.654 374.021 456.391 378 459.671C387.761 467.717 403.93 469.272 414 460.786C426.097 450.593 436.814 438.186 448 427C456.461 418.539 465.224 411.537 466.707 399C467.711 390.516 463.495 382.088 457.907 376C454.906 372.731 448.536 368.613 447.727 364C447.038 360.069 451.582 354.493 453.139 351C458.062 339.954 461.148 327.957 466.133 317.059C468.6 311.668 475.051 313 480 313C488.875 313 496.862 312.869 503.826 306.532C518.957 292.765 512 257.719 512 239C512 231.719 513.303 222.968 510.891 216C506.947 204.604 496.454 199.056 485 199.001C480.488 198.979 472.327 200.569 468.419 197.972C464.546 195.399 464.028 188.062 462.565 184C458.501 172.714 452.164 162.199 448.191 151C446.379 145.891 451.816 142.222 454.996 139C461.077 132.838 466.073 125.919 466.812 117C468.548 96.0485 441.136 78.1357 428 65C422.696 59.6962 417.454 52.9235 411 49.0054C400.956 42.9083 386.736 45.1277 378 52.3287C373.62 55.9389 367.494 66.1123 361 63.8087C349.801 59.8361 339.286 53.4989 328 49.4352C323.937 47.9724 316.601 47.4539 314.028 43.581C311.804 40.2346 313 33.8359 313 30C312.999 20.9145 311.946 12.9457 304.826 6.46759C297.468 -0.228394 289.32 0 280 0C260.687 0 236.806 -3.81671 218 0.529327z"/>
<path style="fill:#ffffff; stroke:none;" d="M294 0L294 1C304.651 4.15665 312.454 13.8673 312.961 25C313.209 30.4667 310.396 42.9151 316.148 45.8912C326.917 51.4628 339.834 54.178 351 59.3087C354.559 60.9438 359.971 65.4815 364 64.9784C369.295 64.3172 374.211 56.5008 378 53.1852C386.115 46.0844 397.867 43.4233 408 47.9699C414.709 50.98 419.897 57.8968 425 63C437.964 75.9644 468.73 96.3037 466.66 117C465.867 124.936 461.391 131.449 455.985 137C453.086 139.978 446.67 144.307 447.017 149C447.35 153.504 451.766 158.851 453.576 163C458.145 173.474 461.285 184.491 465.714 194.941C468.63 201.822 480.864 198.76 487 199.039C498.133 199.546 507.843 207.349 511 218L512 218L512 0L294 0M219 61C201.086 63.4124 183.214 70.6135 167 78.3202C161.175 81.0887 151.507 90.1945 145 89.7477C133.437 88.9536 125.737 61.6938 113 66.0532C107.822 67.8254 103.741 73.2593 100 77L74.0008 103C70.6336 106.385 64.2899 111.48 65.8472 117C68.6741 127.019 91.0124 135.385 89.6883 146C88.8214 152.95 81.3302 160.667 78.3202 167C70.6135 183.214 63.4123 201.086 61 219L34 219C30.3918 219 25.3119 218.149 22.3032 220.603C18.1224 224.014 19.0003 231.235 19 236L19 276C19.0003 280.765 18.1224 287.986 22.3032 291.397C25.312 293.851 30.3918 293 34 293L61 293C63.4123 310.914 70.6135 328.786 78.3202 345C81.3302 351.333 88.8214 359.05 89.6883 366C91.0124 376.615 68.6741 384.981 65.8472 395C64.2899 400.52 70.6336 405.615 74.0008 409L100 435C103.741 438.741 107.822 444.175 113 445.947C125.737 450.306 133.437 423.046 145 422.252C151.507 421.805 161.175 430.911 167 433.68C183.214 441.387 201.086 448.588 219 451L219 478C219 481.608 218.149 486.688 220.603 489.697C224.014 493.878 231.235 493 236 493L276 493C280.765 493 287.986 493.878 291.397 489.697C293.851 486.688 293 481.608 293 478L293 451C310.914 448.588 328.786 441.387 345 433.68C351.333 430.67 359.05 423.179 366 422.312C376.615 420.988 384.981 443.326 395 446.153C400.52 447.71 405.615 441.366 409 437.999L435 412C438.741 408.259 444.175 404.178 445.947 399C450.306 386.263 423.046 378.563 422.252 367C421.805 360.493 430.911 350.825 433.68 345C441.387 328.786 448.588 310.914 451 293L478 293C481.608 293 486.688 293.851 489.697 291.397C493.878 287.986 493 280.765 493 276L493 236C493 231.235 493.878 224.014 489.697 220.603C486.688 218.149 481.608 219 478 219L451 219C448.588 201.086 441.387 183.214 433.68 167C430.911 161.175 421.805 151.507 422.252 145C423.046 133.437 450.306 125.737 445.947 113C444.175 107.823 438.741 103.741 435 100L409 74.0008C405.615 70.6336 400.52 64.2899 395 65.8472C384.981 68.6741 376.615 91.0124 366 89.6883C359.05 88.8214 351.333 81.3302 345 78.3202C328.786 70.6135 310.914 63.4124 293 61L293 34C293 30.3918 293.851 25.312 291.397 22.3032C287.986 18.1224 280.765 19.0003 276 19L236 19C231.235 19.0003 224.014 18.1224 220.603 22.3032C218.149 25.3119 219 30.3919 219 34L219 61z"/>
<path style="fill:#010101; stroke:none;" d="M242 123.425C219.331 126.511 197.79 133.506 179 146.91C105.101 199.626 105.101 312.375 179 365.09C191.903 374.294 206.649 381.018 222 384.873C237.053 388.654 253.493 390.569 269 388.715C291.261 386.052 312.306 379.022 331 366.481C344.029 357.74 355.128 346.643 364.36 334C419.245 258.834 377.517 148.874 288 126.627C273.407 123 256.975 121.387 242 123.425z"/>
<path style="fill:#ffffff; stroke:none;" d="M243 143.428C223.877 146.167 205.793 152.644 190 163.91C112.78 218.994 136.932 343.398 229 365.87C241.775 368.989 255.897 370.448 269 368.572C288.123 365.833 306.206 359.357 322 348.09C399.22 293.006 375.068 168.602 283 146.13C270.225 143.011 256.104 141.552 243 143.428z"/>
<path style="fill:#010101; stroke:none;" d="M244 161.425C230.103 163.317 216.932 167.755 205 175.229C194.752 181.649 185.57 190.108 178.59 200C132.065 265.94 185.462 360.466 267 350.715C280.839 349.059 294.07 344.647 306 337.385C316.665 330.893 326.203 322.214 333.41 312C380.016 245.945 325.991 150.264 244 161.425z"/>
<path style="fill:#ffffff; stroke:none;" d="M245 181.439C234.105 183.141 223.059 187.095 214 193.44C161.388 230.29 175.261 314.267 239 329.346C247.815 331.431 258.016 331.964 267 330.561C277.895 328.859 288.941 324.905 298 318.56C350.612 281.71 336.739 197.733 273 182.654C264.185 180.569 253.984 180.036 245 181.439M0 294L0 512L218 512L218 511C207.349 507.843 199.545 498.133 199.039 487C198.814 482.05 201.405 469.654 196.682 466.569C186.546 459.947 171.188 457.518 160 452.219C156.513 450.568 151.02 445.92 147 447.252C141.961 448.922 137.898 455.404 134 458.815C125.733 466.049 113.142 468.877 103 463.558C96.4217 460.108 91.1901 453.19 86 448C72.9773 434.977 45.7953 417.029 45.2608 397C44.8443 381.392 60.6488 377.371 64.7477 365C66.0796 360.98 61.4323 355.487 59.7809 352C54.344 340.521 51.6457 327.27 45.8912 316.148C42.5724 309.734 27.1849 313.702 21 312.532C10.2101 310.493 5.61117 302.293 0 294M511 294C507.843 304.651 498.133 312.455 487 312.961C481.619 313.205 468.981 310.391 466.133 316.148C460.719 327.096 457.852 339.769 452.691 351C451.056 354.559 446.518 359.971 447.022 364C447.558 368.295 453.173 372.112 455.985 375C461.391 380.551 465.867 387.064 466.66 395C468.73 415.696 437.964 436.036 425 449C419.897 454.103 414.709 461.02 408 464.03C397.867 468.577 386.115 465.916 378 458.815C374.211 455.499 369.295 447.683 364 447.022C359.766 446.493 353.738 451.453 350 453.219C339.124 458.357 326.798 460.866 316.148 466.133C310.391 468.981 313.205 481.619 312.961 487C312.454 498.133 304.651 507.843 294 511L294 512L512 512L512 359L512 315L511 294z"/>
</svg>
