<?xml version="1.0" standalone="yes"?>
<svg xmlns="http://www.w3.org/2000/svg" width="512" height="512">
<path style="fill:#ffffff; stroke:none;" d="M0 0L0 494L1 494L12.7184 398L36 214L120 214C127.945 214 143.533 210.875 146.481 221.015C150.081 233.392 134.499 233 127 233L53 233L45.1551 297L29.7184 420L22 484L491 484L476.831 353L464 233L390 233C382.717 233 367.198 232.987 370.668 221.015C373.661 210.688 389.885 214 398 214L482 214L489.834 291L504.166 426L511 493L512 493L512 0L0 0z"/>
<path style="fill:#010101; stroke:none;" d="M247 363C242.497 364.707 237.47 367.549 235.179 372.015C231.269 379.636 236.997 386.657 245 385.887C251.388 385.273 264.361 377.494 267.543 371.826C269.505 368.332 268.839 364.354 271.314 361C283.714 344.193 297.113 328.779 308.319 311C344.239 254.008 375.814 177.657 369.17 109C365.508 71.1626 349.087 32.6489 311 18.0648C271.667 3.004 216.841 3.71457 183 31.4645C159.846 50.4514 147.737 82.4966 147.015 112C144.834 201.024 187.124 297.993 247 363z"/>
<path style="fill:#ffffff; stroke:none;" d="M258 345C273.982 332.104 285.217 310.294 295.811 293C325.855 243.955 350 182.135 350 124C350 93.1565 342.118 60.668 315 42.5193C283.415 21.3815 225.753 22.2877 196 46.4676C182.142 57.7294 174.172 73.9707 169.895 91C157.182 141.617 176.245 198.651 196.15 245C211.249 280.157 231.372 317.174 258 345z"/>
<path style="fill:#010101; stroke:none;" d="M252 48.4252C236.229 50.5719 221.826 56.0616 210.17 67.2894C164.774 111.018 201.243 193.34 265 185.715C277.242 184.25 288.879 180.109 299 172.957C353.737 134.276 320.31 39.1268 252 48.4252z"/>
<path style="fill:#ffffff; stroke:none;" d="M251 68.4637C243.168 69.8476 235.387 72.6953 229.004 77.5147C188.741 107.913 216.889 174.554 267 165.535C273.802 164.311 280.293 161.494 286 157.64C327.618 129.536 301.41 59.5563 251 68.4637z"/>
<path style="fill:#010101; stroke:none;" d="M36 214C26.223 266.632 22.698 320.92 15.7184 374C10.196 415.997 0.0280347 460.668 0 503L512 503L504.166 425L488.834 281L482 214L398 214C390.341 214 373.714 210.616 370.654 220.04C366.541 232.704 380.792 233 389 233L464 233C464.383 279.23 473.91 327.01 478.834 373C482.703 409.135 482.591 448.68 491 484L22 484L28.7184 429L45.1551 298L53 233L127 233C135.557 233 150.74 233.582 146.486 220.04C143.572 210.763 127.43 214 120 214L36 214M401 258.439C392.982 259.691 378.377 270.325 391.109 277.682C396.347 280.709 410.148 278.862 415.999 277.656C423.635 276.082 427.039 265.877 420.772 260.514C416.125 256.537 406.626 257.56 401 258.439M439.019 280.742C429.235 284.612 430.155 322.771 446.985 316.397C460.068 311.441 456.44 273.851 439.019 280.742M420 328.652C414.493 330.069 401.15 334.552 397.858 339.214C390.876 349.101 402.053 356.239 411 354.101C417.676 352.506 427.392 349.487 430.821 342.96C434.763 335.456 428.385 326.495 420 328.652M349 339.483C341.045 341.224 336.628 351.63 344.214 356.991C350.216 361.232 364.309 359.602 370.996 357.581C378.375 355.351 380.434 345.294 373.891 340.742C368.653 337.098 355.033 338.163 349 339.483M310 342.443C303.589 343.191 292.093 343.454 287.434 348.394C281.003 355.213 287.55 365.22 296 364.671C302.287 364.261 315.127 363.569 319.566 358.721C326.548 351.1 318.919 341.402 310 342.443M102 359.44C96.3869 360.344 88.9765 362.581 86.1798 368.019C82.3264 375.51 89.4717 382.765 97 381.657C102.155 380.898 115.976 379.061 119.581 375.566C132.296 363.24 110.616 358.052 102 359.44M212 390.573C205.651 392.059 193.381 399.985 190.704 406.04C187.106 414.179 193.505 421.472 202 419.606C208.614 418.153 220.308 410.313 222.991 403.961C226.156 396.467 220.076 388.681 212 390.573M70.0154 392.743C57.9865 397.42 57.7072 435.439 74.9846 429.092C85.9759 425.054 87.6482 385.888 70.0154 392.743M164 419.522C157.603 420.797 145.702 424.782 141.742 430.213C136.667 437.174 142.759 446.648 151 445.631C157.323 444.851 170.427 440.038 174.258 434.787C179.824 427.157 172.62 417.803 164 419.522M92.0154 436.703C84.8785 439.183 83.7959 449.547 90.189 453.583C96.6663 457.671 109.892 457.785 116.985 455.297C123.672 452.951 125.726 443.183 119.775 438.742C115.313 435.412 97.2242 434.893 92.0154 436.703z"/>
<path style="fill:#ffffff; stroke:none;" d="M0 503L0 512L512 512L512 503L0 503z"/>
</svg>
