<?xml version="1.0" standalone="yes"?>
<svg xmlns="http://www.w3.org/2000/svg" width="512" height="512">
<path style="fill:#ffffff; stroke:none;" d="M0 0L0 512L45 512L45 221C35.1329 227.951 27.5515 237.82 18 245.177C12.893 249.11 6.72947 250.47 2.87269 243.981C-1.4961 236.63 8.30713 229.461 13 225.09C28.2424 210.891 43.2764 196.235 59 182.576C107.691 140.277 153.169 94.1097 201 50.8302C218.804 34.7203 235.388 14.8148 255 1L232 0L180 0L0 0z"/>
<path style="fill:#010101; stroke:none;" d="M45 221L45 512L467 512L467 221C475.707 229.701 485.379 240.969 496 247.272C501.15 250.328 507.922 248.986 510.092 242.995C512.747 235.665 504.659 229.43 500 225.09C485.701 211.769 471.49 198.281 457 185.17C407.526 140.404 358.232 95.0616 310 48.9606C297.189 36.7156 284.291 24.4369 271 12.7145C267.191 9.35477 261.566 0.867279 256 0.867279C250.434 0.867279 244.809 9.3548 241 12.7145C227.709 24.4369 214.811 36.7157 202 48.9606C153.768 95.0617 104.474 140.404 55 185.17C40.5101 198.281 26.2987 211.769 12 225.09C7.34113 229.43 -0.7472 235.665 1.90818 242.995C4.09026 249.019 10.8189 250.272 16 247.297C26.6636 241.175 36.3362 229.663 45 221z"/>
<path style="fill:#ffffff; stroke:none;" d="M257 0L257 1C276.612 14.8148 293.196 34.7203 311 50.8302C358.831 94.1097 404.309 140.277 453 182.576C468.724 196.235 483.758 210.891 499 225.09C503.693 229.461 513.496 236.63 509.127 243.981C505.235 250.53 499.073 249.084 494 245.061C484.571 237.583 476.848 227.936 467 221L467 512L512 512L512 0L257 0M63 494L185 494L185 386C185 363.565 183.069 340.352 194.312 320C222.508 268.964 298.425 273.954 321.127 327C329.245 345.968 327 367.873 327 388L327 494L449 494L449 286L449 228C449 221.18 451.073 210.201 447.972 204C442.391 192.837 427.038 183.329 418 174.91C394.05 152.602 369.444 130.817 346 107.985C324.211 86.765 301.552 66.2362 279 45.8302C274.104 41.4 262.878 26.2068 256 26.2068C249.122 26.2068 237.896 41.4 233 45.8302C210.448 66.2362 187.789 86.765 166 107.985C142.556 130.817 117.95 152.602 94 174.91C84.9619 183.329 69.609 192.837 64.0278 204C60.9274 210.201 63 221.18 63 228L63 286L63 494M204 494L308 494L308 387C308 369.768 311.125 349.073 303.676 333C285.217 293.169 229.503 292.538 209.32 331C200.938 346.973 204 367.584 204 385L204 494z"/>
</svg>
