<?xml version="1.0" standalone="yes"?>
<svg xmlns="http://www.w3.org/2000/svg" width="512" height="512">
<path style="fill:#ffffff; stroke:none;" d="M0 0L0 512L428 512L428 511C410.196 509.546 394.079 496.518 384.699 482C381.464 476.993 377.52 459.132 371.891 458.148C362.487 456.504 351.55 458 342 458L282 458L96 458L31 458C23.7541 458 11.7381 459.317 9.44907 449.996C6.49232 437.956 22.6145 438 30 438L108 438L286 438L344 438C352.916 438 363.111 439.387 371.891 437.852C376.213 437.096 376.378 432.499 377.439 429C379.629 421.78 383.677 414.963 388.236 409C403.597 388.91 429.36 379.733 454 385.428C508.043 397.921 519.161 470.279 475 500.961C467.656 506.063 458.997 510.264 450 511L450 512L512 512L512 0L84 0L84 1C101.804 2.45413 117.921 15.4824 127.301 30C130.536 35.0067 134.48 52.8679 140.109 53.8519C149.201 55.4412 159.767 54 169 54L229 54L416 54L481 54C488.246 54 500.262 52.6829 502.551 62.0038C505.508 74.0437 489.386 74 482 74L404 74L226 74L168 74C159.084 74 148.889 72.6133 140.109 74.1481C135.787 74.9035 135.622 79.5014 134.561 83C132.371 90.2196 128.323 97.0375 123.764 103C108.403 123.09 82.6398 132.268 58 126.572C3.95678 114.079 -7.16124 41.7212 37 11.0394C44.3438 5.9371 53.0034 1.73581 62 1L42 0L0 0z"/>
<path style="fill:#010101; stroke:none;" d="M62 0.439056C-4.47205 10.8207 -9.09639 111.293 57 126.572C80.9423 132.106 107.57 124.643 122.985 105C127.67 99.0303 131.864 92.2476 134.251 85C135.637 80.7887 135.729 75.0297 141.044 74.1481C168.088 69.6627 199.548 74 227 74L405 74L473 74C480.603 74 493.447 76.4149 499.772 71.2971C508.067 64.5841 500.226 54.7715 492 54.0934C468.667 52.1698 444.418 54 421 54L227 54L168 54C159.542 54 148.255 55.9773 140.109 53.6821C135.903 52.497 135.636 47.5445 134.561 44C132.495 37.1865 128.749 30.6906 124.522 25C110.091 5.57544 85.7385 -3.26843 62 0.439056z"/>
<path style="fill:#ffffff; stroke:none;" d="M66 19.4645C59.334 20.6642 52.5734 23.3767 47 27.2207C8.26459 53.9365 35.3142 116.606 81 108.384C138.068 98.1136 122.642 9.27011 66 19.4645z"/>
<path style="fill:#010101; stroke:none;" d="M192 246L51 246C41.0071 246 9.08796 240.614 9.08796 256C9.08796 271.484 41.9181 266 52 266L193 266C193.77 275.423 197.841 284.381 203.298 292C235.739 337.297 315.029 325.145 323 266L465 266C474.499 266 488.077 268.453 496.985 264.852C502.553 262.601 505.011 255.264 501.258 250.225C498.216 246.141 492.6 246.023 488 246.001C477.334 245.949 466.666 246 456 246L368 246C355.709 246 338.922 249.015 327.109 245.682C321.315 244.047 317.405 223.579 313.934 218C303.549 201.304 283.873 188.917 264 188.039C228.155 186.456 196.729 209.378 192 246z"/>
<path style="fill:#ffffff; stroke:none;" d="M253 207.428C244.7 208.619 236.845 211.358 230.001 216.3C191.432 244.148 217.365 306.786 264 300.711C270.823 299.822 277.212 297.461 283 293.76C322.846 268.283 301.754 200.431 253 207.428z"/>
<path style="fill:#010101; stroke:none;" d="M428 384.439C410.507 387.171 395.176 397.358 385.359 412C381.565 417.658 377.539 436.76 370.956 437.852C361.789 439.372 351.294 438 342 438L282 438L96 438L31 438C24.0783 438 11.8706 436.215 9.43441 445.015C5.75274 458.314 21.5472 458 30 458L108 458L285 458C312.452 458 343.912 453.663 370.956 458.148C376.271 459.03 376.363 464.789 377.749 469C380.136 476.248 384.33 483.03 389.015 489C405.605 510.141 436.981 518.164 462 508.385C470.347 505.122 478.467 500.192 484.829 493.829C528.781 449.878 488.136 375.047 428 384.439z"/>
<path style="fill:#ffffff; stroke:none;" d="M432 403.439C374.742 412.452 387.997 500.914 445 492.7C503.276 484.302 489.706 394.356 432 403.439z"/>
</svg>
