<?xml version="1.0" standalone="yes"?>
<svg xmlns="http://www.w3.org/2000/svg" width="512" height="512">
<path style="fill:#ffffff; stroke:none;" d="M0 0L0 389C14.1969 382.998 27.581 370.023 40 360.884C71.4026 337.776 102.963 309.968 137 291L137 380L318 380C351.898 380 388.085 384.232 420 370.573C452.509 356.659 478.017 324.14 482.999 289C484.164 280.788 482.669 257.419 497.282 261.164C511.681 264.854 503.879 293.197 501.37 303C491.716 340.726 464.876 371.911 430 388.742C396.495 404.91 358.087 401 322 401L137 401L137 490C102.236 470.197 70.4534 442.008 38 418.576C26.0428 409.942 13.6081 397.724 0 392L0 512L512 512L512 123C497.803 129.002 484.419 141.977 472 151.116C440.597 174.224 409.037 202.031 375 221L375 132L194 132C160.102 132 123.915 127.768 92 141.427C59.4912 155.341 33.983 187.86 29.0008 223C27.8364 231.212 29.3308 254.581 14.7184 250.836C0.318484 247.146 8.12088 218.803 10.6296 209C20.2843 171.274 47.1242 140.089 82 123.258C115.505 107.09 153.913 111 190 111L375 111L375 22C409.764 41.8034 441.547 69.9921 474 93.4244C485.957 102.058 498.392 114.276 512 120L512 0L0 0z"/>
<path style="fill:#010101; stroke:none;" d="M375 22L375 111L189 111C152.913 111 114.505 107.09 81 123.258C45.7549 140.267 19.3356 171.784 10.1304 210C7.85233 219.458 0.506247 247.388 14.0147 250.917C29.5718 254.983 27.702 233.16 29.0008 224C34.0345 188.497 60.1826 155.473 93 141.427C124.915 127.768 161.102 132 195 132L375 132L375 221L414 194L512 123L512 120C478.655 99.4192 447.778 73.5201 416 50.5756C403.307 41.411 389.632 27.6282 375 22z"/>
<path style="fill:#ffffff; stroke:none;" d="M396 63L396 180C424.694 165.726 450.918 140.681 477 122L477 121C450.236 102.794 424.964 77.4088 396 63z"/>
<path style="fill:#010101; stroke:none;" d="M137 380L137 291L98 318L0 389L0 392C33.3445 412.581 64.2224 438.48 96 461.424C108.693 470.589 122.368 484.372 137 490L137 401L323 401C359.087 401 397.495 404.91 431 388.742C466.245 371.733 492.664 340.217 501.87 302C504.148 292.542 511.494 264.612 497.985 261.083C482.428 257.017 484.298 278.84 482.999 288C477.965 323.504 451.817 356.527 419 370.573C387.085 384.232 350.898 380 317 380L137 380z"/>
<path style="fill:#ffffff; stroke:none;" d="M115 332L35 390L35 391C61.7644 409.206 87.0357 434.591 116 449L116 368L115 332z"/>
</svg>
