<?xml version="1.0" standalone="yes"?>
<svg xmlns="http://www.w3.org/2000/svg" width="512" height="512">
<path style="fill:#ffffff; stroke:none;" d="M0 0L0 81L1 81C8.17511 73.2885 14.7382 77.9638 22 83.1412C36.2749 93.3187 50.7362 103.229 65 113.421C101.792 139.712 139.09 165.299 176 191.424C200.783 208.966 225.169 228.057 251 244L251 121C251 110.691 246.428 85.5169 255.109 78.4337C261.533 73.1913 268.662 79.6493 274 83.4244C288.647 93.7828 303.403 103.991 318 114.421C363.103 146.65 408.913 177.888 454 210.14C466.593 219.149 479.388 227.877 492 236.859C498.498 241.486 506.214 245.517 511 252L512 252L512 0L0 0z"/>
<path style="fill:#010101; stroke:none;" d="M251 268L251 394C251 403.39 246.422 429.706 256.044 434.821C262.456 438.23 269 432.774 274 429.28C287.697 419.71 301.406 410.135 315 400.421C364.744 364.875 415.198 330.324 465 294.859C476.944 286.353 489.032 278.048 501 269.576C505.929 266.086 511.912 262.792 511.912 256C511.912 249.208 505.929 245.914 501 242.424C489.032 233.952 476.944 225.647 465 217.141C415.198 181.676 364.744 147.125 315 111.579C301.406 101.865 287.697 92.2898 274 82.7199C269 79.2264 262.456 73.7702 256.044 77.179C246.422 82.294 251 108.61 251 118L251 244C231.611 227.464 208.877 213.895 188 199.28C146.932 170.531 105.826 141.801 65 112.709C50.723 102.536 36.3202 92.5374 22 82.4244C16.8327 78.7752 9.60805 73.3226 3.34414 78.0092C-1.69292 81.778 0 90.5138 0 96L0 147L0 357L0 415C0 421.332 -2.11028 431.836 5.09414 434.99C11.943 437.989 18.8119 431.851 24 428.14C38.2594 417.941 52.741 408.06 67 397.86C107.103 369.173 147.607 340.997 188 312.72C208.877 298.105 231.611 284.536 251 268z"/>
<path style="fill:#ffffff; stroke:none;" d="M18 104L18 408C43.7266 395.776 67.7341 373.892 91 357.424C138.517 323.791 185.866 289.743 234 257L234 255C185.866 222.257 138.517 188.209 91 154.576C67.7341 138.108 43.7266 116.224 18 104M270 104L270 408L328 367.72L441 288.28L486 257L486 255L441 223.72L328 144.28L270 104M511 260C506.214 266.483 498.498 270.514 492 275.141C479.388 284.123 466.593 292.851 454 301.86C408.913 334.112 363.103 365.35 318 397.579C303.404 408.009 288.647 418.217 274 428.576C268.662 432.351 261.533 438.809 255.109 433.566C246.428 426.483 251 401.309 251 391L251 268C225.169 283.944 200.783 303.034 176 320.576C139.09 346.701 101.792 372.288 65 398.579C50.7362 408.771 36.2749 418.681 22 428.859C14.7382 434.036 8.17511 438.711 1 431L0 431L0 512L512 512L512 334L512 283L511 260z"/>
</svg>
