<?xml version="1.0" standalone="yes"?>
<svg xmlns="http://www.w3.org/2000/svg" width="512" height="512">
<path style="fill:#ffffff; stroke:none;" d="M0 0L0 512L234 512L234 511C206.391 510.924 176.416 500.454 152 488.247C41.5469 433.027 -11.2308 301.15 35.2006 186C55.7308 135.085 93.456 93.1599 141 66.0008C153.96 58.5975 176.541 44.7015 192 45.6443C201.868 46.2461 203.514 58.1322 195.981 63.0054C180.513 73.0112 160.125 76.1132 144 86.0648C94.3413 116.712 54.9579 167.214 42.804 225C33.2635 270.36 36.051 317.063 54.4275 360C103.384 474.39 243.891 526.695 355 469.741C464.65 413.534 508.585 271.805 445.397 165C426.019 132.247 398.629 102.794 365 84.3117C349.717 75.9124 331.91 72.0201 317.015 63.5833C309.796 59.4937 309.079 48.7773 318.004 45.9838C322.427 44.5992 327.857 47.2868 332 48.6667C343.38 52.4572 354.311 57.3225 365 62.7562C413.642 87.4839 451.288 129.714 473.769 179C526.506 294.615 471.943 432.283 360 488.247C335.584 500.454 305.609 510.924 278 511L278 512L512 512L512 0L260 0L260 1C271.351 9.97025 266 37.7885 266 51L266 193C266 207.022 267.575 222.091 265.815 236C265.153 241.227 261.895 246.782 256 246.782C250.105 246.782 246.847 241.227 246.185 236C244.425 222.091 246 207.022 246 193L246 51C246 37.7885 240.649 9.97021 252 1L229 0L178 0L0 0z"/>
<path style="fill:#010101; stroke:none;" d="M252.044 0.742279C246.372 3.0397 246.026 9.7756 246.001 15C245.936 28.3326 246 41.6672 246 55L246 205C246 215.656 243.999 228.627 246.533 238.999C248.02 245.085 253.838 248.735 259.956 246.258C265.628 243.96 265.974 237.224 265.999 232C266.064 218.667 266 205.333 266 192L266 42C266 31.3442 268.001 18.3734 265.467 8.00076C263.98 1.91513 258.162 -1.73547 252.044 0.742279M190 45.5046C179.397 46.8758 168.689 52.3604 159 56.5756C128.544 69.8259 100.767 90.096 78.8449 115C-8.40961 214.122 0.197647 367.329 100 454.714C119.436 471.732 142.028 485.411 166 495C188.616 504.047 213.532 510.889 238 511.961C341.927 516.511 440.935 459.722 478.575 360C490.438 328.569 494.393 296.389 493.996 263C493.094 187.136 446.423 112.061 383 72.5764C368.554 63.5827 353.148 55.505 337 50.0031C331.802 48.2319 325.585 45.1893 320 45.3626C306.477 45.7824 310.571 61.8115 320 65.304C380.82 87.8324 430.966 128.083 457.127 189C469.468 217.735 476.332 250.676 474.961 282C470.101 392.966 379.756 485.326 269 492.91C116.956 503.322 0.0217743 346.578 49.0787 204C66.0018 154.815 101.365 112.007 146 85.4529C161.66 76.1366 178.936 72.0284 194.995 64.0841C205.044 59.1133 201.742 43.9863 190 45.5046z"/>
</svg>
