<?xml version="1.0" standalone="yes"?>
<svg xmlns="http://www.w3.org/2000/svg" width="512" height="512">
<path style="fill:#ffffff; stroke:none;" d="M0 0L0 157L1 157C7.84723 148.335 21.1013 151 31 151L87 151C93.9234 151 104.653 153.005 111 149.987C122.592 144.475 133.189 131.825 143 123.59C167.066 103.389 190.901 82.9149 215 62.7538C228.741 51.2579 243.934 32.2711 264 39.1042C295.083 49.6889 285 98.6126 285 124L285 382C285 404.011 289.5 431.75 283.507 453C280.658 463.102 271.195 471.464 261 473.632C240.86 477.914 227.322 458.464 214 446.715C188.909 424.585 164.811 401.278 140 378.83C130.813 370.518 121.174 357.56 110 352.027C103.769 348.941 92.8424 351 86 351L30 351C20.4697 351 7.9524 353.676 1 346L0 346L0 512L512 512L512 327L511 327C500.964 338.08 491.58 325.58 484 318L427 261L426 261L369 318C363.102 323.898 353.211 337.758 344.228 328.772C335.45 319.99 349.236 309.764 355 304L412 247L412 246L355 189C349.236 183.236 335.45 173.01 344.228 164.228C353.107 155.347 363.157 169.157 369 175L426 232L427 232L484 175C491.58 167.42 500.964 154.92 511 166L512 166L512 0L0 0z"/>
<path style="fill:#010101; stroke:none;" d="M253 37.4676C234.986 39.2641 220.101 57.5575 207 68.7284C176.016 95.1484 145.604 123.644 113 148.022C106.182 153.12 95.1242 151 87 151L29 151C21.6818 151 10.5575 148.962 4.1088 153.09C-0.461279 156.014 0.00184311 161.223 0 166L0 197L0 307C0 316.744 -4.22307 339.788 1.89352 347.656C6.75279 353.907 21.9459 351 29 351L87 351C94.1294 351 104.964 348.928 111 353.303C125.015 363.462 137.336 377.134 150 388.91C170.213 407.706 190.786 426.113 211 444.91C224.686 457.637 239.223 477.124 260 473.981C295.38 468.631 285 416.231 285 391L285 124C285 103.532 289.596 76.5722 283.215 57C279.241 44.8128 265.749 36.1962 253 37.4676z"/>
<path style="fill:#ffffff; stroke:none;" d="M104 171L19 171L19 331L104 331C104 319.557 100.59 301.688 104.742 291.005C108.144 282.252 119.238 282.819 122.772 291.015C128.684 304.732 117.216 326.857 126.318 339C132.892 347.77 143 354.65 151 362.09C168.936 378.768 187.064 395.232 205 411.91C218.776 424.721 232.359 438.423 247 450.231C253.426 455.413 262.362 455.715 264.606 445.999C266.799 436.502 265 424.735 265 415L265 352L265 152L265 84C265 76.7419 267.318 64.7979 260.786 59.7037C255.165 55.3198 249.54 59.1661 245 63.0046C234.331 72.0255 223.72 81.1196 213 90.0803C192.901 106.881 172.868 123.796 153 140.87C144.343 148.309 133.832 155.129 126.318 163.729C122.966 167.565 124 173.251 124 178C124 187.819 126.514 201.774 122.852 210.996C119.412 219.66 107.696 220.434 104.653 210.985C100.986 199.601 104 182.943 104 171z"/>
<path style="fill:#010101; stroke:none;" d="M412 246L412 247C390.275 262.303 371.804 286.195 353 305C347.484 310.516 335.843 320.226 343.434 328.772C351.824 338.217 362.304 325.696 368 320C386.805 301.195 410.697 282.725 426 261L427 261C442.303 282.725 466.195 301.196 485 320C490.488 325.487 500.992 337.863 509.427 329.427C517.962 320.893 505.529 310.529 500 305C481.195 286.195 462.725 262.303 441 247L441 246C462.725 230.697 481.195 206.805 500 188C505.529 182.471 517.961 172.107 509.427 163.573C500.992 155.137 490.488 167.513 485 173C466.195 191.804 442.303 210.275 427 232L371 176C365.187 170.187 356.724 157.933 347.015 161.742C333.915 166.882 345.471 180.462 351 186C370.416 205.449 389.551 230.187 412 246z"/>
<path style="fill:#ffffff; stroke:none;" d="M511 175C492.602 201.119 463.614 223.386 441 246L441 247C463.614 269.614 492.602 291.882 511 318L512 318L512 218C512 205.794 515.707 186.218 511 175z"/>
</svg>
