<?xml version="1.0" standalone="yes"?>
<svg xmlns="http://www.w3.org/2000/svg" width="512" height="512">
<path style="fill:#ffffff; stroke:none;" d="M0 0L0 252L1 252C5.78571 245.517 13.5022 241.486 20 236.859C32.6123 227.877 45.4073 219.149 58 210.14C103.087 177.888 148.898 146.65 194 114.421C208.596 103.991 223.353 93.7828 238 83.4244C243.338 79.6493 250.467 73.1913 256.891 78.4337C265.572 85.517 261 110.691 261 121L261 244C286.831 228.056 311.217 208.966 336 191.424C372.91 165.299 410.208 139.712 447 113.421C461.264 103.229 475.725 93.3187 490 83.1412C497.262 77.9638 503.825 73.2886 511 81L512 81L512 0L0 0z"/>
<path style="fill:#010101; stroke:none;" d="M261 268C280.389 284.536 303.123 298.105 324 312.72C365.068 341.469 406.174 370.199 447 399.291C461.277 409.464 475.68 419.463 490 429.576C495.167 433.225 502.392 438.677 508.656 433.991C513.693 430.222 512 421.486 512 416L512 365L512 155L512 97C512 90.6681 514.11 80.1643 506.906 77.01C500.057 74.0114 493.188 80.1486 488 83.8596C473.741 94.059 459.259 103.94 445 114.14C404.897 142.827 364.393 171.003 324 199.28C303.123 213.895 280.389 227.464 261 244L261 118C261 108.61 265.578 82.294 255.956 77.179C249.544 73.7703 243 79.2264 238 82.7199C224.303 92.2898 210.594 101.864 197 111.579C147.256 147.125 96.8017 181.676 47 217.141C35.0556 225.647 22.9678 233.952 11 242.424C6.07086 245.914 0.087963 249.208 0.087963 256C0.087963 262.792 6.07088 266.086 11 269.576C22.9678 278.048 35.0556 286.353 47 294.859C96.8017 330.324 147.256 364.875 197 400.421C210.594 410.135 224.303 419.71 238 429.28C243 432.774 249.544 438.23 255.956 434.821C265.578 429.706 261 403.39 261 394L261 268z"/>
<path style="fill:#ffffff; stroke:none;" d="M241 104L108 197.72L26 255L26 257L71 288.28L184 367.72L242 408L242 193L242 131L241 104M493 104L278 255L278 257C326.134 289.743 373.483 323.791 421 357.424C444.266 373.892 468.273 395.776 494 408L494 193L494 131L493 104M0 260L0 512L512 512L512 431L511 431C503.825 438.711 497.262 434.036 490 428.859C475.725 418.681 461.264 408.771 447 398.579C410.208 372.288 372.91 346.701 336 320.576C311.217 303.034 286.831 283.944 261 268L261 391C261 401.309 265.572 426.483 256.891 433.566C250.467 438.809 243.338 432.351 238 428.576C223.017 417.98 207.925 407.536 193 396.86C149.58 365.799 105.477 335.69 62 304.709C41.4601 290.073 18.7808 276.838 0 260z"/>
</svg>
