<?xml version="1.0" standalone="yes"?>
<svg xmlns="http://www.w3.org/2000/svg" width="512" height="512">
<path style="fill:#ffffff; stroke:none;" d="M0 0L0 153L1 153C8.57022 144.143 22.4257 147 33 147L90 147C97.327 147 108.192 148.999 115 146.062C127.519 140.66 139.638 126.107 150 117.272C174.575 96.3166 199.425 75.6834 224 54.7284C238.797 42.1115 255.536 22.2374 277 31.9051C305.983 44.9598 296 94.3942 296 120L296 386C296 408.752 299.987 435.823 294.764 458C292.196 468.902 284.161 478.636 273 481.485C250.881 487.132 234.258 465.826 220 451.986C196.99 429.65 172.783 408.341 149 386.83C138.685 377.5 127.436 362.246 115 356.028C108.582 352.819 97.0662 355 90 355L32 355C21.8214 355 8.00247 357.916 1 349L0 349L0 512L512 512L512 270L511 270C510.563 322.84 473.859 377.828 432 407.279C418.335 416.894 403.569 424.741 388 430.796C381.736 433.233 372.872 435.029 369.743 426.985C366.736 419.252 373.815 414.393 380 411.961C403.325 402.79 424.232 389.79 442 372C483.283 330.667 501.306 267.82 487.105 211C476.928 170.282 452.649 133.949 418 110.025C405.368 101.304 391.817 95.8794 378 89.5571C373.409 87.4565 368.276 83.6795 368.873 78.0008C369.974 67.5308 380.885 68.7509 388 71.4251C404.743 77.718 420.772 86.3757 435 97.2361C474.966 127.743 510.567 179.726 511 232L512 232L512 0L0 0z"/>
<path style="fill:#010101; stroke:none;" d="M260 29.4645C242.428 32.626 227.107 51.0956 214 62.2716C182.197 89.3896 151.092 120.129 117 144.277C110.173 149.112 98.9958 147 91 147L30 147C22.5502 147 10.6991 144.794 4.18904 149.09C-0.316084 152.062 0.00215086 157.221 0 162L0 194L0 308L0 338C0 342.055 -0.809442 347.308 1.74228 350.786C7.09702 358.084 23.103 355 31 355L91 355C97.7958 355 109.069 352.86 115 356.603C127.087 364.233 137.394 377.237 148 386.83C171.425 408.017 195.399 428.937 218 451C233.118 465.759 249.66 486.833 273 481.711C284.789 479.123 292.519 469.392 294.985 458C300.021 434.742 296 406.784 296 383L296 107C296 81.2383 303.736 21.5959 260 29.4645z"/>
<path style="fill:#ffffff; stroke:none;" d="M108 168L20 168L20 334L108 334C108 322.181 104.298 302.943 108.858 292.015C112.317 283.725 123.887 283.455 127.258 292.015C131.047 301.638 128 317.693 128 328C128 332.644 127.149 338.004 130.318 341.83C153.434 369.746 186.042 391.66 212 417C226.258 430.919 241.221 446.024 257 458.177C263.582 463.246 272.724 462.403 274.656 453C276.702 443.042 275 431.156 275 421L275 355L275 149L275 78C275 70.3946 277.437 57.9238 270.867 52.4337C265.006 47.5371 258.815 51.9655 254 55.9236C242.531 65.3515 231.297 75.0952 220 84.7284C198.403 103.144 176.597 121.313 155 139.728C147.33 146.269 133.622 153.924 129.028 163.004C124.285 172.377 128.017 191.547 128 202C127.99 208.138 126.747 216.027 119 216.667C113.897 217.088 109.273 212.779 108.279 207.999C105.714 195.67 108 180.6 108 168z"/>
<path style="fill:#010101; stroke:none;" d="M374.044 69.858C365.942 73.3521 367.69 83.8954 374.019 88.0062C384.94 95.0999 398.644 98.5989 410 105.45C433.503 119.628 453.517 140.467 467.547 164C509.207 233.876 494.082 321.445 436 376.961C424.666 387.794 411.019 397.182 397 404.191C389.547 407.918 379.75 409.867 373.109 414.853C364.808 421.087 369.663 434.098 380 433.362C403.063 431.72 430.329 410.382 447 396C518.069 334.692 531.369 228.267 483.55 149C465.815 119.602 438.537 95.2407 408 79.7562C399.578 75.4856 383.736 65.678 374.044 69.858M321.015 123.742C313.49 126.698 313.012 136.778 319.055 141.351C328.389 148.416 341.929 150.638 352 157.355C380.352 176.265 401.446 209.413 402.961 244C404.637 282.29 387.172 319.44 356 342.079C344.791 350.221 329.72 352.738 319.109 360.702C310.692 367.019 315.673 379.942 326 379.211C342.104 378.069 359.592 366.304 372 356.87C425.763 315.99 439.23 238.203 404.189 181C390.562 158.754 369.91 140.201 346 129.59C339.306 126.619 328.455 120.821 321.015 123.742z"/>
</svg>
