<?xml version="1.0" standalone="yes"?>
<svg xmlns="http://www.w3.org/2000/svg" width="512" height="512">
<path style="fill:#ffffff; stroke:none;" d="M0 0L0 128L1 128C7.77711 118.906 21.8171 122 32 122C62.3899 122 97.2116 132.868 118.956 155.039C125.985 162.206 123.385 176.672 111 173.718C103.706 171.978 97.3074 164.36 91 160.425C78.9962 152.937 65.9026 147.851 52 145.261C38.2862 142.705 10.0071 148.469 1 137L0 137L0 375L1 375C9.81671 363.774 35.7584 369.41 49 367.246C75.1715 362.97 98.3722 349.811 115.949 329.999C128.781 315.536 137.951 297.031 141.54 278C146.455 251.938 143.892 226.934 155.309 202C160.711 190.2 167.568 178.76 176.17 169C227.171 111.131 300.45 122 370 122L370 29L468 99.8843L512 131L512 0L0 0z"/>
<path style="fill:#010101; stroke:none;" d="M370 29L370 122C301.089 122 225.251 110.415 175.299 169C157.773 189.556 147.558 215.358 144.286 242C142.418 257.213 143.39 272.002 139.09 287C130.674 316.353 108.983 342.108 82 356.215C66.8647 364.128 49.9184 367.752 33 368.91C24.9148 369.464 15.9186 367.566 8.00077 369.394C-1.74171 371.644 -3.17542 386.743 7.00386 389.566C14.7343 391.711 25.0002 390 33 390C90.2749 390 142.717 350.981 159.28 296C165.368 275.792 163.602 255.455 167.46 235C170.78 217.394 179.14 199.835 190.463 186C235.181 131.361 307.132 143 370 143L370 235C383.978 231.374 398.305 216.086 410 207.71C443.565 183.671 476.152 154.425 512 134L502 123.884L476 105L406 54.1157L370 29z"/>
<path style="fill:#ffffff; stroke:none;" d="M392 72L392 193L435 162.424L476 132L421 92.1157L392 72z"/>
<path style="fill:#010101; stroke:none;" d="M6.01543 122.742C-1.63416 125.759 -2.094 137.736 5.04398 141.543C13.1296 145.856 26.0869 142.322 35 143.17C55.5055 145.121 74.5908 150.358 92 161.695C99.2132 166.393 108.329 177.789 117.96 173.343C137.113 164.502 108.847 145.386 101 140.872C78.5235 127.941 54.8132 122 29 122C22.2014 122 12.4058 120.222 6.01543 122.742z"/>
<path style="fill:#ffffff; stroke:none;" d="M370 235L370 143C308.441 143 237.193 131.223 192.159 183C184.651 191.633 178.997 201.6 174.312 212C165.713 231.088 167.436 250.001 164.572 270C160.675 297.215 150.585 323.35 131.924 344C106.896 371.697 71.8181 390 34 390C23.4774 390 7.99471 393.386 1 384L0 384L0 512L512 512L512 381L468 412.116L370 483L370 390C323.82 390 269.434 398.138 226 379.716C213.671 374.487 200.756 367.154 191.044 357.829C185.974 352.963 183.915 345.649 190.189 340.653C194.234 337.432 198.856 337.953 203 340.613C214.78 348.175 224.769 356.301 238 361.55C257.49 369.282 278.417 369 299 369L370 369L370 277L407 302.849L478 354.424L512 378L512 134L478 157.576L407 209.151L370 235z"/>
<path style="fill:#010101; stroke:none;" d="M370 277L370 369L300 369C278.659 369 257.051 369.194 237 360.716C224.264 355.331 214.757 346.703 203 339.995C198.774 337.584 193.205 337.319 189.344 340.653C184 345.268 185.682 353.344 190.109 357.829C199.45 367.293 212.858 374.566 225 379.716C268.688 398.245 323.546 390 370 390L370 483L406 457.884L476 407L502 388.116L512 378C476.152 357.575 443.565 328.329 410 304.29C398.305 295.914 383.978 280.626 370 277z"/>
<path style="fill:#ffffff; stroke:none;" d="M392 319L392 440L421 419.884L476 380L435 349.576L392 319z"/>
</svg>
