<?xml version="1.0" standalone="yes"?>
<svg xmlns="http://www.w3.org/2000/svg" width="512" height="512">
<path style="fill:#ffffff; stroke:none;" d="M0 0L0 512L248 512L248 284C228.105 298.014 211.219 319.781 194 337C176.781 354.219 155.014 371.105 141 391L140 391L129.207 376L138 366L162 342L248 256L248 255L152 159C142.745 149.745 122.441 138.146 135 126.009C136.408 124.648 138.019 122.727 140 122.207C143.228 121.359 146.004 125.033 148 127.002C154.712 133.621 161.334 140.334 168 147L220 199C228.965 207.965 237.629 218.694 248 226L248 0L0 0z"/>
<path style="fill:#010101; stroke:none;" d="M248 0L248 226L168 146L149 127.001C146.805 124.822 143.583 120.452 140 121.346C137.624 121.938 135.663 124.365 134.001 126.005C121.766 138.073 140.875 148.875 150 158L214 222C224.871 232.871 235.429 246.145 248 255L248 256C236.528 264.081 226.918 276.082 217 286L159 344L137 366C134.335 368.665 129.299 372.175 128.346 376C127.087 381.049 136.85 387.85 140 391L141 391L248 284L248 512L286.17 472L350 403L374.986 376L383.797 364L377 355L358 336L305 283L276 255L276 254L303.09 226L358.715 166L377.014 146L383.654 137L376 127L351 102L284 35L248 0z"/>
<path style="fill:#ffffff; stroke:none;" d="M249 0L283 35L348 100L374 126L383.23 136.576L377.014 145L357.83 166L276 254L276 255L356 335L376 355L382.959 364L374 376L348.039 404L281.83 476L249 512L512 512L512 0L249 0M267 47L267 234C276.651 227.201 284.072 216.611 292.09 208C306.348 192.687 320.792 177.515 334.83 162C339.533 156.802 355.796 144.218 355.793 137C355.791 130.1 339.679 118.679 335 114C313.339 92.3395 292.019 64.6238 267 47M267 275L267 462C275.062 456.201 281.331 447.259 288.09 440C303.856 423.067 319.647 406.156 335.17 389C339.712 383.98 355.793 371.916 355.793 365C355.793 358.102 339.677 346.677 335 342C313.339 320.339 292.019 292.624 267 275z"/>
</svg>
