<?xml version="1.0" standalone="yes"?>
<svg xmlns="http://www.w3.org/2000/svg" width="512" height="512">
<path style="fill:#ffffff; stroke:none;" d="M0 0L0 512L268 512L268 511C262.194 506.138 262.997 499.994 263 493C263.005 479.368 264 465.696 264 452C264 396.826 262.497 341.711 255 287C252.713 270.311 248.147 253.665 246.294 237C245.717 231.813 249 225.435 255 225.573C262.398 225.742 264.315 234.327 265.576 240C269.107 255.893 271.429 271.899 273.729 288C281.633 343.318 282 399.198 282 455C282 468.437 283.326 482.673 281.576 496C280.772 502.12 281.191 506.885 276 511L276 512L512 512L512 0L276 0L276 1C299.478 1.06467 324.62 8.96835 346 18.1505C405.049 43.5096 454.82 93.4722 475.333 155C486.069 187.2 491.173 221.356 494.95 255C495.804 262.604 502.261 287.232 488 286.381C480.397 285.928 479.233 277.864 478.425 272C476.084 255.011 474.523 237.951 471.754 221C461.302 157.028 437.571 98.8591 383 59.7099C331.326 22.6386 265.983 9.17361 204 23.8843C183.166 28.829 163.954 37.4742 145 47.2585C138.868 50.4238 129.383 59.5988 122.015 57.0663C116.009 55.0017 114.665 47.8031 118.434 43.1042C123.41 36.8989 133.124 33.0275 140 29.3087C167.377 14.5022 201.419 1.08701 233 1L211 0L164 0L0 0z"/>
<path style="fill:#010101; stroke:none;" d="M233 0.424377C199.843 4.79071 168.608 13.2958 139 29.3087C132.449 32.8515 122.047 36.7974 117.742 43.1042C114.41 47.9867 115.917 55.7717 122.015 57.4128C130.187 59.6119 139.249 50.7436 146 47.2585C163.735 38.1036 181.64 29.9683 201 24.8843C259.885 9.42105 323.229 20.7767 374 54.0787C434.194 93.5617 460.696 154.604 471.92 223C474.646 239.614 476.131 256.347 478.425 273C479.286 279.246 480.729 287.257 488.999 286.671C502.827 285.69 495.733 259.475 494.576 251C489.505 213.852 485.463 174.667 470.138 140C430.745 50.8878 332.041 -12.6179 233 0.424377M236 52.4244C145.536 64.4476 78.3527 134.54 72.0895 226C70.163 254.132 79.2667 279.84 84.3889 307C90.8873 341.457 84.878 376.41 88.1698 411C88.9843 419.56 84.87 442.943 98.0008 442.786C111.058 442.63 107 420.365 107 412C107 378.807 106.234 346.052 103.975 313C102.879 296.962 96.8795 281.682 93.804 266C89.9089 246.139 89.5836 225.934 93.0841 206C108.232 119.738 200.273 50.3221 288 74.4252C348.322 90.9987 400.485 141.493 416.849 202C426.439 237.46 424.717 273.147 429.424 309C431.434 324.308 430 340.565 430 356C430 370.409 431.452 385.71 429.576 400C428.559 407.746 426.361 426.467 439 425.471C452.355 424.418 448 399.866 448 391C448 354.384 451.206 316.419 446.424 280C441.42 241.885 440.611 204.053 425.127 168C395.274 98.487 313.177 42.1671 236 52.4244M85.0394 69.6566C80.5582 71.0625 77.1634 75.7608 74.0139 79C64.9057 88.3676 57.1684 99.1102 50.0031 110C17.2118 159.836 10.536 222.01 17.0502 280C19.3332 300.324 23.925 320.258 29.1157 340C30.9887 347.124 33.5846 359.33 43.9815 355.257C52.8462 351.784 48.8659 341.626 47.1157 335C41.7113 314.54 37.3137 294.056 34.9498 273C29.1395 221.246 37.2334 169.293 63.8611 124C72.5292 109.256 86.3117 98.2327 95.1065 84C99.6692 76.6161 94.1364 66.8028 85.0394 69.6566M240 104.428C232.63 105.484 209.814 111.102 223.148 122.566C229.707 128.206 244.101 122.208 252 122.015C270.174 121.569 288.821 125.965 305 134.259C375.409 170.356 378 262.816 378 332C378 367.664 378.523 403.469 376.09 439C375.508 447.49 372.169 470.147 385.996 468.743C396.892 467.637 394.987 447.968 395 440C395.05 409.018 396 378.04 396 347C396 269.823 398.367 163.642 320 120.77C309.107 114.811 298.06 110.35 286 107.374C271.525 103.802 254.838 102.304 240 104.428M181 126.738C163.256 133.298 148.734 156.999 140.753 173C109.305 236.049 140.818 305.455 146.086 371C147.911 393.715 147.998 416.246 149.039 439C149.362 446.051 153.542 454.111 161.956 450.837C170.588 447.478 167.838 435.023 167.17 428C165.13 406.567 165.495 384.531 164.025 363C162.308 337.863 158.105 312.663 152.997 288C146.54 256.825 140.1 227.175 151.436 196C156.853 181.101 164.793 167.718 175.576 156.09C180.687 150.579 188.346 146.339 192.397 139.996C197.594 131.856 189.517 123.59 181 126.738M252 164.439C242.638 165.439 233.622 166.671 225 170.785C218.413 173.927 212.271 177.984 207.001 183.039C173.288 215.375 191.032 257.244 194.83 297C198.329 333.619 197.58 370.357 200.09 407C201.658 429.909 200.999 453.008 201 476C201 483.421 200.998 496.427 211.999 494.756C220.402 493.48 220 484.506 220 478C220.001 459.665 219 441.382 219 423C219 373.612 217.103 323.006 210.718 274C207.136 246.501 196.34 219.681 220.09 197.286C243.79 174.938 281.394 180.316 298.532 208C319.912 242.533 317.49 290.27 322.576 329C324.463 343.374 321.711 358.799 324.468 373C325.675 379.216 331.388 384.506 337.945 380.972C344.841 377.256 342.763 368.238 342.17 362C340.77 347.292 340.4 331.771 340.015 317C339.752 306.956 338.235 296.986 337.166 287C332.383 242.326 324.308 178.671 272 166.579C265.726 165.129 258.444 163.75 252 164.439M252.005 225.757C245.261 228.2 245.698 235.213 246.805 241C249.867 257.009 252.879 272.846 255.13 289C263.12 346.336 264 404.173 264 462C264 475.746 261.336 490.358 263.133 503.999C263.921 509.978 269.181 513.173 274.985 511.566C281.428 509.781 280.725 503.31 281.424 498C283.186 484.62 282 470.489 282 457C282 398.513 280.126 341.065 273.155 283C271.265 267.255 268.709 251.398 264.87 236C263.396 230.09 259.357 223.094 252.005 225.757M331.001 407.708C322.156 408.857 323 418.328 323 425C323 443.381 323.999 461.609 324 480C324 486.735 324.61 495.905 333.999 494.728C342.605 493.65 342 484.471 342 478C342 460.301 342.297 442.629 341.09 425C340.613 418.047 341.807 406.303 331.001 407.708z"/>
</svg>
