<?xml version="1.0" standalone="yes"?>
<svg xmlns="http://www.w3.org/2000/svg" width="512" height="512">
<path style="fill:#ffffff; stroke:none;" d="M0 0L0 512L172 512L172 511C161.388 504.568 164 491.78 164 481L164 401L164 100L164 29C164 18.6169 161.825 7.16724 172 1C158.879 -4.50568 135.3 0 121 0L0 0z"/>
<path style="fill:#010101; stroke:none;" d="M172.015 0.702942C161.263 4.43774 164 19.1629 164 28L164 112L164 421C164 447.032 161.873 474.072 164.094 500C164.83 508.589 172.547 514.051 180.996 511.486C192.067 508.125 189 492.805 189 484L189 400L189 91C189 64.7154 192.284 36.0401 188.867 10C187.813 1.97308 179.3 -1.82764 172.015 0.702942z"/>
<path style="fill:#ffffff; stroke:none;" d="M182 0L182 1C191.289 8.42227 189 19.1987 189 30L189 102L189 400L189 480C189 491.209 191.653 503.286 182 511L182 512L330 512L330 511C320.347 503.286 323 491.209 323 480L323 400L323 102L323 30C323 19.1987 320.711 8.42224 330 1C318.544 -3.80707 298.468 0 286 0L182 0z"/>
<path style="fill:#010101; stroke:none;" d="M330.015 0.858032C320.438 4.84024 323 17.7233 323 26L323 99L323 409L323 492C323 502.436 325.63 516.284 339.985 511.297C350.952 507.488 348 491.992 348 483L348 399L348 91C348 64.9683 350.127 37.9283 347.906 12C347.15 3.17963 338.561 -2.6955 330.015 0.858032z"/>
<path style="fill:#ffffff; stroke:none;" d="M340 0L340 1C350.175 7.16724 348 18.617 348 29L348 100L348 401L348 481C348 491.78 350.612 504.568 340 511L340 512L512 512L512 0L340 0z"/>
</svg>
