<?xml version="1.0" standalone="yes"?>
<svg xmlns="http://www.w3.org/2000/svg" width="512" height="512">
<path style="fill:#ffffff; stroke:none;" d="M0 0L0 512L74 512L74 511C64.3466 503.286 67 491.209 67 480L67 400L67 102L67 30C67 19.1987 64.7112 8.42224 74 1L51 0L0 0z"/>
<path style="fill:#010101; stroke:none;" d="M92 281C119.811 296.842 145.636 317.803 172 335.975C232.314 377.545 292.259 419.727 353 460.67C373.465 474.464 393.769 488.584 414 502.72C421 507.611 430.977 516.177 439.956 510.258C447.554 505.249 445 492.813 445 485L445 412L445 111L445 27C445 18.4398 447.964 3.44455 436.999 0.433655C426.684 -2.3988 417.789 6.78055 410 11.9992C388.826 26.1859 368.072 41.005 347 55.3441C288.424 95.2046 230.338 135.816 172 176.025C145.636 194.197 119.81 215.158 92 231L92 49C92 36.8429 95.1482 19.5387 91.1458 8.01465C88.4257 0.182587 77.6155 -2.74695 71.189 2.57251C63.7187 8.75601 67 25.2853 67 34L67 121L67 414L67 485C67 492.882 64.5193 504.978 72.0941 510.106C88.6115 521.29 92 498.389 92 488L92 379L92 281z"/>
<path style="fill:#ffffff; stroke:none;" d="M84 0L84 1C98.5579 9.8241 92 43.95 92 59L92 231L117 214.67L173 176.025L340 60.9745L398 20.9745L428 1L397 0L327 0L84 0M438 0L438 1C447.725 8.02014 445 20.2799 445 31L445 111L445 411L445 483C445 493.328 447.355 504.247 438 511L438 512L512 512L512 0L438 0M419 37C338.824 91.0872 259.278 146.324 180 201.72C160.749 215.171 141.251 228.268 122 241.72C118.321 244.291 104.207 251.096 104.207 256C104.207 260.904 118.321 267.709 122 270.28C140.578 283.261 159.539 295.713 178 308.859C229.111 345.253 281.567 379.781 333 415.72C351.919 428.94 370.997 441.928 390 455.025C399.734 461.734 409.293 469.935 420 475L420 165L420 76C420 64.8419 423.308 47.2657 419 37M92 281L92 453C92 468.05 98.5579 502.176 84 511L84 512L428 512L428 511L398 491.025L340 451.025L173 335.975L117 297.33L92 281z"/>
</svg>
