<?xml version="1.0" standalone="yes"?>
<svg xmlns="http://www.w3.org/2000/svg" width="512" height="512">
<path style="fill:#ffffff; stroke:none;" d="M0 0L0 512L74 512L74 511C64.6449 504.247 67 493.328 67 483L67 411L67 111L67 31C67 20.2799 64.275 8.02014 74 1L51 0L0 0z"/>
<path style="fill:#010101; stroke:none;" d="M420 281L420 463C420 475.157 416.852 492.461 420.854 503.985C423.574 511.817 434.384 514.747 440.811 509.427C448.281 503.244 445 486.715 445 478L445 391L445 98L445 27C445 19.1176 447.481 7.02216 439.906 1.89352C423.388 -9.28973 420 13.611 420 24L420 133L420 231C392.189 215.158 366.364 194.197 340 176.025C279.687 134.455 219.74 92.2729 159 51.3303C138.535 37.5358 118.231 23.4164 98 9.28009C91.0003 4.38904 81.0232 -4.17719 72.044 1.74228C64.4461 6.7511 67 19.1872 67 27L67 100L67 401L67 485C67 493.56 64.0359 508.555 75.0008 511.566C85.3158 514.399 94.211 505.219 102 500.001C123.174 485.814 143.928 470.995 165 456.656C223.576 416.795 281.662 376.183 340 335.975C366.364 317.803 392.189 296.842 420 281z"/>
<path style="fill:#ffffff; stroke:none;" d="M84 0L84 1L114 20.9745L172 60.9745L339 176.025L395 214.67L420 231L420 59C420 43.95 413.442 9.82407 428 1L397 0L327 0L84 0M438 0L438 1C447.289 8.42224 445 19.1987 445 30L445 102L445 400L445 480C445 491.209 447.653 503.286 438 511L438 512L512 512L512 0L438 0M92 37L92 475C102.707 469.935 112.266 461.734 122 455.025C141.003 441.928 160.081 428.94 179 415.72C230.433 379.781 282.889 345.253 334 308.859C352.461 295.713 371.422 283.261 390 270.28C393.679 267.709 407.793 260.904 407.793 256C407.793 251.096 393.679 244.291 390 241.72C371.422 228.739 352.461 216.287 334 203.141C282.889 166.747 230.433 132.219 179 96.2801C160.081 83.0602 141.003 70.0724 122 56.9745C112.266 50.2657 102.707 42.0649 92 37M84 511L84 512L428 512L428 511C413.442 502.176 420 468.05 420 453L420 281L395 297.33L339 335.975L172 451.025L114 491.025L84 511z"/>
</svg>
