<?xml version="1.0" standalone="yes"?>
<svg xmlns="http://www.w3.org/2000/svg" width="512" height="512">
<path style="fill:#ffffff; stroke:none;" d="M0 0L0 512L98 512L98 511C48.6989 509.977 7.00045 455.279 21.0363 408C33.3156 366.638 75.0685 342.203 117 344.039C145.894 345.305 163.65 360.271 186 376L186 129L186 66C186 58.9366 183.688 46.9141 188.434 41.1088C193.182 35.3001 203.165 35.7176 210 34.9498C226.348 33.1134 242.703 30.821 259 28.5764C307.257 21.93 355.633 15.6358 404 9.84491C427.405 7.04272 451.431 1.48657 475 1C464.02 -3.60736 444.944 0 433 0L336 0L0 0z"/>
<path style="fill:#010101; stroke:none;" d="M186 376C157.671 347.749 118.585 337.085 80 348.721C29.9777 363.807 2.58065 420.153 28.3117 467C62.4531 529.159 167.686 527.016 197.691 462C211.505 432.066 205 392.245 205 360L205 150L270 142.155L412 123.845L474 116L474 283C452.56 260.204 422.416 248.168 391 251.17C341.29 255.92 297.453 298.715 308.285 351C325.256 432.914 448.381 441.881 485.216 371C500.304 341.966 494 302.671 494 271L494 89L494 34C494 25.6808 495.762 15.028 493.427 7.00385C491.158 -0.797363 482.627 -0.507141 476 0.285492C458.98 2.32098 442.035 5.03729 425 6.94983C366.301 13.5401 307.475 21.3746 249 29.7292C234.36 31.8209 219.65 33.4059 205 35.4236C199.642 36.1616 192.333 35.8305 188.434 40.2284C183.724 45.5401 186 57.3793 186 64L186 127L186 376z"/>
<path style="fill:#ffffff; stroke:none;" d="M488 0L488 1C497.164 7.91925 494 22.7101 494 33L494 122L494 276C494 302.438 497.94 332.456 490.115 358C477.344 399.691 430.837 423.718 389 418.715C375.128 417.055 360.858 412.843 349 405.305C338.419 398.578 328.774 390.228 321.428 380C316.179 372.69 312.337 364.648 309.86 356C292.681 296.014 351.366 247.189 408 251.09C435.6 252.99 453.034 267.154 474 283L474 116L411 123.845L261 143.155L205 150L205 345C205 376.654 209.896 412.963 203.55 444C196.528 478.34 161.46 509.454 126 511L126 512L512 512L512 0L488 0M205 55L205 131L352 111.845L474 96L474 21L403 29.7184L267 47.1551L205 55M400 270.71C387.709 270.873 376.201 273.14 365 278.309C356.879 282.057 349.21 287.478 343.09 294.004C338.133 299.29 334.283 305.407 331.312 312C310.339 358.529 357.131 401.012 402 399.985C413.135 399.73 424.923 396.955 435 392.218C443.407 388.267 451.57 382.922 457.826 375.996C462.867 370.416 467.021 363.983 469.796 357C488.147 310.822 444.808 270.114 400 270.71M100 364.428C89.7129 365.902 80.0988 369.311 71 374.312C35.2217 393.975 26.8249 441.746 56.0394 470.961C74.1604 489.082 101.245 495.535 126 491.704C135.679 490.206 145.742 486.553 154 481.305C161.68 476.424 168.65 470.354 174.076 463C178.531 456.962 181.763 450.267 183.622 443C196.277 393.536 145.141 357.961 100 364.428z"/>
</svg>
