<?xml version="1.0" standalone="yes"?>
<svg xmlns="http://www.w3.org/2000/svg" width="512" height="512">
<path style="fill:#ffffff; stroke:none;" d="M0 0L0 512L252 512L252 511C241.734 502.862 247 474.247 247 462L247 321L247 265C247 259.809 249.219 247.849 245.972 243.589C242.859 239.504 230.8 237.868 226 235.127C213.213 227.828 202.365 215.074 197.749 201C179.922 146.648 244.504 99.4538 291 132.209C299.012 137.853 305.426 145.445 310.135 154C321.395 174.455 318.639 200.812 304.331 219C298.051 226.984 290.234 233.432 281 237.691C277.297 239.398 267.421 240.56 265.603 244.314C263.746 248.15 265 254.821 265 259L265 293L265 413L265 484C265 492.804 267.617 504.962 260 511L260 512L512 512L512 0L432 0L432 1C449.995 13.6845 464.327 37.1482 475.15 56C516.083 127.303 516.986 212.503 484.576 287C474.693 309.715 459.58 330.619 443.166 349C438.264 354.489 425.009 368.955 419.747 354.985C417 347.691 425.672 341.554 429.91 337C441.919 324.098 451.927 309.309 460.576 294C484.975 250.81 494.154 198.941 487.718 150C482.226 108.233 465.644 67.9026 439.196 35C432.437 26.5916 410.856 11.4195 424 1L424 0L88 0L88 1C101.144 11.4195 79.5629 26.5916 72.804 35C46.4086 67.8375 29.7631 108.314 24.2816 150C17.913 198.432 26.724 250.258 51 293C59.868 308.614 69.8094 323.806 82.0895 337C86.3279 341.554 95.0003 347.691 92.2531 354.985C86.505 370.245 72.0213 352.456 67.0748 347C49.4666 327.578 35.443 304.932 24.8619 281C-6.15526 210.846 -2.15451 127.136 34.6944 60C45.8093 39.7495 60.8401 14.5055 80 1L55 0L0 0z"/>
<path style="fill:#010101; stroke:none;" d="M80 0.742279C74.2242 2.93985 70.079 9.57748 66.0748 14C54.0999 27.226 43.7457 42.3413 35.2307 58C-0.400982 123.525 -6.12803 203.388 21.2029 273C31.3631 298.878 45.6641 322.754 63.5903 344C69.0257 350.442 78.5868 365.617 88.8912 359.821C98.3379 354.508 89.6909 343.807 85 339C63.4991 316.965 47.8422 289.569 36.811 261C13.4837 200.586 18.5368 128.897 49.3086 72C56.5489 58.6126 64.7678 45.7862 74.4244 34C79.6232 27.6546 86.8178 21.9404 91.1065 15C96.1242 6.87979 89.4545 -2.85498 80 0.742279M424.044 0.742279C415.535 4.19458 419.712 14.1968 424.094 19C443.364 40.1204 459.535 62.5783 470.85 89C498.539 153.659 495.178 229.09 461.691 291C450.865 311.015 436.32 326.419 422.344 344C416.778 351.001 419.158 362.81 430 360.718C436.54 359.455 440.819 352.584 445 348C457.141 334.688 467.387 319.636 476.281 304C514.791 236.296 517.452 152.406 487.989 81C478.146 57.1443 463.987 34.3143 446.833 15C441.409 8.89243 433.871 -3.24463 424.044 0.742279M120 36.7076C114.312 37.4423 109.824 42.9686 106.286 47C97.0151 57.5651 89.3827 68.9586 82.2006 81C50.0693 134.871 47.7515 206.348 73.6914 263C81.8364 280.789 91.9724 297.117 104.729 312C109.033 317.021 115.251 325.918 122.996 324.103C129.567 322.563 131.423 315.448 128.297 310C124.809 303.921 118.97 299.456 114.669 294C106.562 283.715 99.6041 272.702 93.7531 261C70.3912 214.276 67.6736 156.998 89.3117 109C98.5778 88.4458 111.394 72.3498 125.38 55C130.355 48.8289 132.221 35.1291 120 36.7076M390.001 36.6682C383.923 37.2293 380.726 43.4827 382.739 49C386.173 58.4106 397.22 66.8522 403.151 75C446.268 134.231 447.808 213.88 409.997 276C402.542 288.248 390.704 297.799 383.703 310C380.392 315.77 382.82 323.441 390.001 324.282C396.957 325.096 402.462 317.62 406.421 313C418.039 299.44 428.834 284.388 436.139 268C462.326 209.25 463.902 138.633 430.397 82C422.85 69.244 414.807 57.0273 404.83 46C401.112 41.8904 396.17 36.0988 390.001 36.6682M156 73.6126C143.866 76.4785 133.705 96.1333 127.8 106C104.421 145.066 101.614 197.39 119.861 239C126.13 253.296 134.172 267.639 145.039 279C149.062 283.206 154.424 289.499 160.985 287.092C167.067 284.86 168.012 278.093 164.991 273C156.863 259.297 145.129 248.886 138.309 234C122.334 199.137 122.707 157.242 140.259 123C146.984 109.88 159.2 99.8209 165.542 87C168.811 80.3925 163.903 71.7459 156 73.6126M352.004 73.6126C345.838 75.0894 343.81 81.6845 346.457 87C351.796 97.7234 362.329 106.357 368.421 117C389.071 153.075 391.013 198.506 372.741 236C366.093 249.641 356.047 259.683 347.652 272C343.352 278.309 345.738 288.653 355 287.562C367.37 286.104 378.473 264.57 384.2 255C408.324 214.688 410.146 161.473 390.769 119C384.747 105.798 377.057 92.5553 366.961 82C363.154 78.0198 358.227 72.122 352.004 73.6126M248 121.428C201.497 128.09 178.238 184.127 208.465 221C215.074 229.063 223.363 235.058 233 238.985C237.188 240.692 245.295 241 246.682 246.059C250.808 261.11 247 282.36 247 298L247 411L247 490C247 498.351 244.736 514.031 257.996 511.768C268.601 509.958 265 491.735 265 484L265 396L265 289C265 277.107 260.877 256.034 265.603 245.147C267.848 239.977 283.881 237.118 289 233.934C303.967 224.625 315.06 207.68 316.829 190C320.753 150.784 288.256 115.661 248 121.428z"/>
<path style="fill:#ffffff; stroke:none;" d="M255 139.594C199.117 141.7 202.269 227.333 258 224.961C312.565 222.638 309.61 137.536 255 139.594z"/>
</svg>
